<?xml version="1.0" standalone="no"?>
<!DOCTYPE svg PUBLIC "-//W3C//DTD SVG 20010904//EN"
 "http://www.w3.org/TR/2001/REC-SVG-20010904/DTD/svg10.dtd">
<svg version="1.0" xmlns="http://www.w3.org/2000/svg"
 width="600.000000pt" height="600.000000pt" viewBox="0 0 600.000000 600.000000"
 preserveAspectRatio="xMidYMid meet">
<metadata>
Created by potrace 1.11, written by Peter Selinger 2001-2013
</metadata>
<g transform="translate(0.000000,600.000000) scale(0.100000,-0.100000)"
fill="#000000" stroke="none">
<path d="M2650 4849 c0 -3 -10 -6 -22 -6 -77 -1 -99 -4 -93 -13 5 -9 -21 -14
-62 -13 -7 1 -13 -3 -13 -8 0 -5 -12 -9 -27 -9 -22 0 -25 -2 -13 -10 13 -8 13
-10 -2 -10 -9 0 -24 -7 -32 -16 -9 -8 -16 -13 -16 -9 0 3 -11 -5 -25 -19 -27
-27 -31 -72 -7 -81 9 -3 11 -12 7 -26 -4 -12 -3 -19 1 -16 5 3 14 -1 21 -8 10
-11 10 -15 0 -18 -7 -3 -3 -6 7 -6 11 -1 17 -4 13 -7 -3 -4 0 -19 8 -34 8 -15
11 -31 7 -35 -4 -5 -1 -5 6 -1 6 4 12 4 13 -1 4 -40 12 -69 21 -74 7 -4 7 -9
-1 -13 -6 -4 -15 -5 -20 -1 -5 3 -13 0 -17 -6 -5 -8 -3 -9 6 -4 8 5 11 4 7 -3
-4 -5 -18 -9 -32 -7 -14 1 -25 -2 -25 -6 0 -5 -9 -9 -20 -9 -11 0 -20 -4 -20
-10 0 -6 -3 -9 -7 -9 -28 5 -53 -3 -53 -16 0 -8 -4 -16 -10 -16 -5 -1 -15 -2
-21 -3 -7 0 -15 -10 -20 -21 -4 -11 -8 -15 -8 -10 -1 6 -5 4 -9 -3 -9 -14 -4
-72 7 -72 3 0 6 -21 5 -47 0 -27 4 -51 10 -55 7 -5 6 -8 -3 -8 -9 0 -10 -4 -4
-12 5 -7 10 -26 12 -43 1 -16 10 -36 19 -42 14 -11 14 -13 0 -13 -20 0 -60
-35 -50 -45 4 -5 -1 -5 -10 -2 -10 4 -18 2 -18 -2 0 -13 -68 -79 -75 -73 -3 3
-5 -3 -5 -14 0 -11 -9 -25 -20 -32 -12 -7 -18 -17 -15 -22 3 -6 1 -10 -5 -10
-14 0 -34 -21 -38 -40 -2 -8 -13 -25 -24 -37 -33 -36 -73 -109 -77 -144 0 -5
-5 -7 -11 -4 -5 3 -10 -1 -10 -10 0 -9 -7 -27 -16 -40 -9 -13 -13 -29 -9 -35
3 -5 1 -10 -4 -10 -6 0 -10 -3 -10 -7 3 -21 -2 -34 -11 -28 -6 4 -9 3 -8 -2 4
-13 -24 -103 -32 -103 -5 0 -11 -21 -14 -47 -3 -27 -8 -61 -10 -78 -2 -16 -5
-34 -5 -38 -1 -5 -5 -5 -11 -2 -6 4 -10 -13 -10 -43 0 -27 -3 -52 -7 -56 -7
-6 -14 -87 -15 -173 0 -24 -4 -40 -9 -37 -5 3 -7 -1 -5 -8 14 -45 16 -69 5
-62 -8 4 -9 3 -5 -5 12 -19 16 -72 6 -66 -6 4 -6 -3 0 -19 5 -14 7 -26 4 -26
-2 0 0 -8 5 -18 7 -13 7 -22 0 -29 -7 -7 -7 -13 -1 -17 6 -4 8 -22 5 -41 -4
-22 -1 -41 8 -52 11 -14 11 -15 1 -9 -11 7 -12 4 -4 -11 6 -11 12 -40 13 -66
2 -28 8 -48 16 -52 8 -2 11 -10 8 -15 -4 -6 -1 -18 7 -27 7 -9 8 -14 2 -10
-15 9 6 -54 26 -78 15 -18 16 -21 18 -63 1 -12 7 -21 14 -20 7 2 13 -1 13 -7
5 -37 72 -142 102 -159 13 -7 13 -10 2 -17 -11 -7 -9 -10 9 -15 12 -4 22 -13
22 -20 0 -8 7 -14 15 -14 8 0 14 -5 13 -12 -2 -7 7 -17 20 -23 12 -5 22 -16
22 -23 0 -7 5 -10 10 -7 6 3 10 3 10 -2 0 -9 48 -33 67 -33 7 0 10 -6 7 -14
-3 -8 2 -13 13 -13 33 0 64 -15 59 -29 -3 -8 0 -11 11 -7 22 9 33 -15 33 -75
0 -38 3 -51 12 -46 7 4 8 3 4 -4 -13 -21 -15 -51 -4 -58 7 -5 8 -2 3 6 -5 9
-4 11 4 6 9 -6 9 -11 0 -22 -7 -9 -8 -14 -1 -14 6 0 9 -8 7 -17 -2 -10 -4 -22
-4 -26 -1 -5 -7 -5 -13 -2 -7 4 -6 1 2 -7 17 -15 20 -40 5 -50 -6 -5 -5 -8 2
-8 9 0 10 -7 3 -24 -6 -17 -5 -26 3 -30 8 -3 8 -5 -2 -5 -10 -1 -11 -4 -2 -15
9 -10 9 -16 1 -21 -8 -5 -8 -11 1 -21 9 -11 9 -14 0 -14 -8 0 -9 -5 -2 -18 7
-13 6 -23 -1 -30 -7 -7 -8 -12 -2 -12 5 0 10 -9 10 -20 0 -11 -5 -20 -11 -20
-6 0 -7 -3 0 -8 12 -9 16 -44 4 -36 -5 3 -9 1 -9 -5 0 -5 4 -12 9 -15 10 -7 9
-25 -2 -43 -5 -7 -4 -13 0 -13 10 0 9 -53 -2 -69 -3 -6 -2 -11 2 -11 5 0 9
-22 8 -50 0 -27 -4 -50 -8 -50 -5 0 -5 -6 0 -12 4 -7 8 -42 9 -78 1 -36 3 -65
4 -65 1 0 3 -7 5 -16 8 -43 20 -66 47 -92 16 -16 26 -33 22 -40 -4 -7 -4 -9 1
-5 4 4 19 -1 33 -12 13 -11 28 -17 33 -14 5 3 6 -3 2 -12 -5 -13 -2 -16 8 -12
23 9 59 -10 59 -30 0 -11 10 -27 23 -36 12 -9 16 -14 10 -11 -19 9 -16 1 11
-28 13 -14 27 -23 30 -20 3 4 6 1 6 -6 0 -7 4 -10 8 -7 4 2 9 -6 10 -20 1 -13
-2 -24 -6 -24 -4 0 -9 -15 -10 -33 -1 -17 -9 -46 -17 -62 -7 -17 -16 -44 -19
-60 -3 -16 -10 -31 -16 -33 -5 -2 -8 -8 -4 -13 8 -13 -6 -50 -17 -44 -5 4 -9
-5 -9 -19 0 -14 -5 -26 -11 -26 -5 0 -8 -4 -4 -9 3 -6 0 -13 -8 -18 -11 -7
-37 -55 -37 -69 0 -2 285 -3 632 -2 l633 3 0 25 c0 14 -4 28 -8 31 -4 3 -9 17
-10 30 0 13 -6 27 -12 31 -6 5 -5 8 4 8 11 0 9 4 -5 15 -10 8 -15 15 -11 15 4
0 3 9 -3 21 -8 14 -8 24 -1 33 8 10 7 17 -4 26 -10 8 -12 18 -6 29 5 9 7 24 6
34 -2 9 1 17 6 17 6 0 8 4 4 9 -3 5 4 12 15 16 11 3 20 13 20 21 0 8 6 13 13
11 6 -1 11 3 10 9 -2 8 15 12 47 11 38 0 50 -4 50 -15 0 -9 3 -12 7 -9 9 9 36
-31 28 -42 -3 -5 5 -17 17 -26 13 -8 22 -18 20 -20 -6 -11 11 -54 22 -58 13
-5 28 -65 31 -122 1 -16 5 -37 9 -46 4 -9 6 -20 5 -25 -6 -32 2 -34 145 -34
104 0 147 3 152 12 12 19 12 48 1 55 -6 4 -7 1 -2 -7 5 -9 4 -11 -3 -6 -9 5
-9 13 -1 28 8 15 8 18 0 14 -7 -4 -11 2 -11 16 0 41 -3 58 -12 58 -4 0 -8 5
-8 11 0 5 6 7 13 3 8 -5 7 -2 -2 9 -8 10 -11 20 -8 24 4 3 -1 12 -11 20 -10 9
-11 11 -2 7 13 -7 13 -5 2 9 -8 9 -11 21 -7 27 3 5 0 10 -8 10 -8 0 -14 8 -14
18 0 36 -3 43 -15 36 -7 -4 -10 -3 -5 1 4 5 0 19 -8 32 -9 13 -13 23 -10 23 3
0 0 10 -7 22 -7 13 -12 26 -13 30 0 3 -4 10 -9 15 -5 5 -6 2 -1 -6 5 -9 4 -12
-3 -7 -7 4 -12 16 -12 26 0 10 -10 26 -22 34 -19 14 -18 20 3 18 3 -1 4 11 1
25 -4 20 -2 24 8 18 10 -6 12 -4 7 7 -3 9 1 26 10 38 8 12 17 37 18 55 2 19 6
39 9 44 3 5 0 12 -6 14 -10 4 -10 6 0 6 9 1 10 6 2 20 -7 14 -7 22 2 27 7 5 8
3 3 -6 -6 -9 -4 -11 4 -6 9 6 8 13 -6 29 -10 11 -12 17 -5 13 10 -6 11 -1 7
21 -4 15 -8 42 -10 58 -4 42 -4 42 -15 25 -8 -12 -10 -9 -10 12 0 15 -5 30
-10 33 -6 4 -8 10 -5 15 3 5 0 12 -6 16 -8 5 -9 3 -4 -6 5 -9 4 -11 -3 -6 -7
4 -12 12 -12 17 0 12 -30 44 -30 32 0 -4 -4 -3 -8 2 -13 19 -70 45 -97 45 -14
0 -24 4 -21 9 6 9 -49 5 -65 -4 -5 -4 -9 0 -9 7 0 8 -3 9 -8 3 -7 -10 -23 -16
-55 -18 -9 -1 -15 -7 -13 -13 3 -7 -3 -11 -12 -9 -9 1 -19 -1 -22 -4 -3 -3
-22 -15 -42 -25 -21 -11 -38 -26 -38 -35 0 -9 -3 -12 -8 -6 -4 6 -14 10 -22
10 -8 0 -18 -4 -22 -10 -5 -6 -8 -5 -8 3 0 9 -5 10 -19 3 -10 -6 -21 -7 -25
-3 -10 9 -66 9 -66 0 0 -4 -5 -8 -11 -8 -5 0 -7 4 -4 10 4 6 -9 7 -33 4 -29
-4 -42 -1 -53 12 -9 11 -9 15 -1 10 15 -9 16 6 0 22 -9 9 -9 12 0 12 7 0 12 5
12 11 0 5 -4 8 -9 5 -5 -3 -8 11 -7 32 2 20 -2 43 -7 49 -6 9 -6 13 1 13 6 0
9 7 6 15 -4 8 -11 12 -18 8 -6 -3 -2 4 9 17 11 13 15 20 8 17 -6 -4 -14 -3
-18 3 -3 5 -2 10 4 10 6 0 7 11 3 28 -4 15 -7 75 -7 134 0 60 -4 108 -8 108
-5 0 -5 6 -1 12 12 19 12 48 1 55 -6 4 -7 1 -2 -7 5 -8 4 -11 -1 -7 -11 6 -11
67 -1 84 4 7 0 16 -10 22 -12 7 -13 10 -4 11 8 0 11 6 7 15 -3 9 1 18 9 21 8
4 15 14 15 24 0 9 9 29 20 42 10 14 16 29 12 33 -4 5 -2 5 4 2 12 -7 38 16 28
25 -2 3 7 5 22 5 14 0 30 7 35 14 5 8 9 10 9 6 0 -4 10 -2 23 5 12 6 28 13 36
14 8 2 17 6 20 11 7 9 109 73 117 73 3 0 15 11 28 25 13 13 26 22 29 18 4 -3
7 0 7 7 0 7 3 11 6 7 4 -3 25 13 47 36 23 23 37 35 33 27 -5 -8 2 -3 15 11 13
15 29 26 34 26 6 0 14 10 20 22 5 11 13 21 18 21 11 0 41 30 30 30 -4 1 5 8
20 16 15 8 26 18 23 22 -4 8 19 33 31 32 5 0 8 5 8 10 0 6 5 14 11 18 6 4 14
17 18 30 4 12 13 22 21 22 8 0 11 7 8 20 -4 14 0 20 10 20 11 0 14 7 11 25 -3
17 1 27 11 32 9 3 14 12 11 19 -3 7 -1 16 4 19 6 4 10 19 10 34 0 15 6 33 13
40 10 11 10 13 0 7 -14 -8 -18 10 -5 18 4 2 9 22 10 42 2 21 8 42 15 46 9 6 8
8 -2 8 -11 0 -11 3 -1 15 6 8 14 54 16 102 2 48 6 111 8 138 10 109 7 236 -4
250 -10 12 -9 16 5 21 12 5 13 9 5 14 -8 5 -14 40 -15 91 -2 46 -4 92 -4 102
-1 10 -4 16 -9 14 -4 -3 -8 20 -10 51 -2 31 -7 61 -11 67 -5 5 -9 24 -9 42 0
17 -5 40 -9 50 -5 10 -9 30 -8 45 0 15 -2 26 -5 25 -6 -2 -5 -3 -25 53 -8 22
-11 40 -7 40 4 0 -1 7 -10 14 -10 7 -19 27 -21 44 -2 18 -11 40 -20 50 -10 10
-14 22 -11 25 4 4 -1 9 -10 13 -9 3 -13 10 -10 15 3 5 0 9 -6 9 -6 0 -8 5 -5
10 3 6 1 10 -5 10 -5 0 -18 16 -27 35 -9 19 -20 35 -25 35 -4 0 -8 9 -8 20 0
11 -3 19 -7 19 -18 -3 -36 1 -30 7 8 9 -90 94 -107 93 -5 0 -12 5 -17 13 -5 7
-13 14 -19 14 -5 1 -15 2 -21 3 -5 0 -7 6 -3 13 4 6 3 8 -4 4 -6 -3 -16 0 -24
7 -15 15 -58 28 -100 30 -16 1 -28 8 -28 14 0 7 -8 12 -17 11 -34 -2 -54 2
-49 11 3 5 0 9 -7 8 -56 -2 -88 4 -81 16 6 9 4 9 -8 -1 -10 -8 -18 -9 -22 -3
-4 6 -22 9 -41 7 -19 -1 -35 1 -35 6 0 5 -9 4 -19 -1 -15 -8 -20 -7 -25 5 -3
9 -4 20 0 25 3 5 -2 9 -10 9 -9 0 -16 6 -16 14 0 17 -39 48 -51 41 -4 -3 -9 2
-13 10 -7 20 -175 22 -195 3 -10 -9 -12 -9 -7 -1 3 6 3 14 -1 16 -13 8 -7 68
8 78 8 5 9 9 2 9 -6 0 -10 13 -9 30 1 17 0 30 -3 30 -3 0 -6 24 -6 53 0 33 -5
51 -12 50 -6 -1 -10 5 -8 15 1 9 -2 26 -8 37 -6 11 -10 23 -9 27 1 3 -12 12
-28 20 -17 7 -30 16 -30 21 0 4 -12 7 -27 6 -16 0 -41 2 -58 6 -38 9 -135 12
-135 4z m1517 -2151 c-3 -8 -6 -5 -6 6 -1 11 2 17 5 13 3 -3 4 -12 1 -19z m88
-2667 c3 -5 2 -12 -3 -15 -5 -3 -9 1 -9 9 0 17 3 19 12 6z"/>
<path d="M3335 1601 c-3 -5 -2 -12 3 -15 5 -3 9 1 9 9 0 17 -3 19 -12 6z"/>
</g>
</svg>
